<svg width="192" height="192" viewBox="0 0 192 192" fill="none" xmlns="http://www.w3.org/2000/svg">
<ellipse cx="96" cy="60" rx="75" ry="60" fill="#D9D9D9"/>
<rect x="21" y="57" width="150" height="78" fill="#D9D9D9"/>
<ellipse cx="96" cy="132" rx="75" ry="60" fill="#D9D9D9"/>
<path d="M45 128.529V73.912C45 67.88 47.4676 61.848 52.4029 55.816C59.093 48.0292 67.5927 44.1358 77.902 44.1358V50.3871C70.0055 50.3871 63.3154 53.5677 57.8318 59.9287C53.6642 64.864 51.5804 70.4025 51.5804 76.5442V128.529C51.5804 138.4 56.406 145.912 66.0573 151.067C70.5539 153.48 74.5021 154.686 77.902 154.686V160.938C70.9925 160.938 64.3025 158.58 57.8318 153.864C49.3869 147.612 45.1097 139.168 45 128.529ZM85.3049 160.938V154.686C90.2402 154.686 95.3948 152.219 100.769 147.283C106.801 141.69 109.872 135.548 109.981 128.858V108.295H85.3049V102.043H116.562V131.161C116.562 137.851 113.162 144.487 106.362 151.067C99.4527 157.538 92.4337 160.828 85.3049 160.938Z" fill="#0E0000"/>
<path d="M74.4852 147.157V32H81.0656V147.157H74.4852ZM88.4686 94.8427V88.4269H114.79C124.99 88.4269 131.351 84.4238 133.873 76.4176C134.97 72.9081 135.518 68.6308 135.518 63.5859C135.518 50.5348 131.296 42.419 122.851 39.2384C119.451 38.032 115.338 37.4288 110.513 37.4288H88.4686V32H114.132C128.39 32.7677 137.218 38.9094 140.618 50.4251C141.715 54.483 142.263 59.0344 142.263 64.0794C142.154 78.2273 138.37 87.4398 130.912 91.7171C138.589 95.2266 142.812 101.807 143.579 111.458L146.376 147.157H139.796L137.328 117.874C136.451 108.004 134.147 101.533 130.419 98.462C127.238 95.8298 122.632 94.6234 116.6 94.8427H88.4686Z" fill="black"/>
<path d="M83.7737 43.4928V49.7442C86.7349 49.7442 90.0799 50.6764 93.8088 52.5409C102.802 57.1471 107.682 64.3856 108.45 74.2562C108.56 74.8045 108.615 75.6819 108.615 76.8883L115.031 74.5852C115.031 67.2371 112.179 60.4373 106.476 54.186C99.8957 46.9475 92.3282 43.3832 83.7737 43.4928Z" fill="url(#paint0_linear_1_28)"/>
<defs>
<linearGradient id="paint0_linear_1_28" x1="87.0133" y1="46.73" x2="99.4021" y2="76.8883" gradientUnits="userSpaceOnUse">
<stop stop-color="#F72585"/>
<stop offset="0.363755" stop-color="#7209B7"/>
<stop offset="0.665" stop-color="#3A0CA3"/>
<stop offset="1" stop-color="#4361EE"/>
</linearGradient>
</defs>
</svg>
