<svg width="48" height="48" viewBox="0 0 48 48" fill="none" xmlns="http://www.w3.org/2000/svg">
<path d="M8 33.7969V16.9375C8 15.0755 8.76172 13.2135 10.2852 11.3516C12.3503 8.94792 14.974 7.74609 18.1562 7.74609V9.67578C15.7188 9.67578 13.6536 10.6576 11.9609 12.6211C10.6745 14.1445 10.0312 15.8542 10.0312 17.75V33.7969C10.0312 36.8438 11.5208 39.1628 14.5 40.7539C15.888 41.4987 17.1068 41.8711 18.1562 41.8711V43.8008C16.0234 43.8008 13.9583 43.0729 11.9609 41.6172C9.35417 39.6875 8.03385 37.0807 8 33.7969ZM20.4414 43.8008V41.8711C21.9648 41.8711 23.556 41.1094 25.2148 39.5859C27.0768 37.8594 28.0247 35.9635 28.0586 33.8984V27.5508H20.4414V25.6211H30.0898V34.6094C30.0898 36.6745 29.0404 38.7227 26.9414 40.7539C24.8086 42.7513 22.6419 43.7669 20.4414 43.8008Z" fill="#0E0000"/>
<path d="M17.1016 39.5469V4H19.1328V39.5469H17.1016ZM21.418 23.3984V21.418H29.543C32.6914 21.418 34.6549 20.1823 35.4336 17.7109C35.7721 16.6276 35.9414 15.3073 35.9414 13.75C35.9414 9.72135 34.638 7.21615 32.0312 6.23438C30.9818 5.86198 29.7122 5.67578 28.2227 5.67578H21.418V4H29.3398C33.7409 4.23698 36.4661 6.13281 37.5156 9.6875C37.8542 10.9401 38.0234 12.3451 38.0234 13.9023C37.9896 18.2695 36.8216 21.1133 34.5195 22.4336C36.8893 23.5169 38.1927 25.5482 38.4297 28.5273L39.293 39.5469H37.2617L36.5 30.5078C36.2292 27.4609 35.5182 25.4635 34.3672 24.5156C33.3854 23.7031 31.9635 23.3307 30.1016 23.3984H21.418Z" fill="black"/>
<path d="M19.9688 7.54763V9.47732C20.8828 9.47732 21.9154 9.76508 23.0664 10.3406C25.8424 11.7625 27.349 13.9969 27.5859 17.0437C27.6198 17.213 27.6367 17.4838 27.6367 17.8562L29.6172 17.1453C29.6172 14.8771 28.737 12.7781 26.9766 10.8484C24.9453 8.61404 22.6094 7.51378 19.9688 7.54763Z" fill="url(#paint0_linear_1_28)"/>
<defs>
<linearGradient id="paint0_linear_1_28" x1="20.9687" y1="8.54688" x2="24.793" y2="17.8562" gradientUnits="userSpaceOnUse">
<stop stop-color="#F72585"/>
<stop offset="0.363755" stop-color="#7209B7"/>
<stop offset="0.665" stop-color="#3A0CA3"/>
<stop offset="1" stop-color="#4361EE"/>
</linearGradient>
</defs>
</svg>
